<svg xmlns="http://www.w3.org/2000/svg" version="1.1" xmlns:xlink="http://www.w3.org/1999/xlink" xmlns:svgjs="http://svgjs.dev/svgjs" width="128" height="128" viewBox="0 0 128 128"><g transform="matrix(0.8046875,0,0,0.8046875,12.333870967741937,40.294688585069444)"><svg viewBox="0 0 155 72" data-background-color="#000000" preserveAspectRatio="xMidYMid meet" height="59" width="128" xmlns="http://www.w3.org/2000/svg" xmlns:xlink="http://www.w3.org/1999/xlink"><g id="tight-bounds" transform="matrix(1,0,0,1,0.25,-0.04999999999999716)"><svg viewBox="0 0 154.5 72.1" height="72.1" width="154.5"><g><svg viewBox="0 0 154.5 72.1" height="72.1" width="154.5"><g><svg viewBox="0 0 154.5 72.1" height="72.1" width="154.5"><g id="textblocktransform"><svg viewBox="0 0 154.5 72.1" height="72.1" width="154.5" id="textblock"><g><svg viewBox="0 0 154.5 72.1" height="72.1" width="154.5"><g transform="matrix(1,0,0,1,0,0)"><svg width="154.5" viewBox="0 -50 93.75 43.75" height="72.1" data-palette-color="url(#122263dd-9a01-4700-8d39-ad1f39d964a5)"></svg></g></svg></g></svg></g></svg></g><g></g></svg></g><defs></defs><mask id="76c0a21c-f215-40d0-84df-2b263d21e314"><g id="SvgjsG1003"><svg viewBox="0 0 154.5 72.1" height="72.1" width="154.5"><g><svg viewBox="0 0 154.5 72.1" height="72.1" width="154.5"><g><svg viewBox="0 0 154.5 72.1" height="72.1" width="154.5"><g id="SvgjsG1002"><svg viewBox="0 0 154.5 72.1" height="72.1" width="154.5" id="SvgjsSvg1001"><g><svg viewBox="0 0 154.5 72.1" height="72.1" width="154.5"><g transform="matrix(1,0,0,1,0,0)"><svg width="154.5" viewBox="0 -50 93.75 43.75" height="72.1" data-palette-color="url(#122263dd-9a01-4700-8d39-ad1f39d964a5)"><path d="M43.75-6.25L0-6.25 0-50 43.75-50 43.75-43.75 12.5-43.75 12.5-31.25 37.5-31.25 37.5-25 12.5-25 12.5-12.5 43.75-12.5 43.75-6.25ZM62.5-6.25L50-6.25 50-50 87.5-50 87.5-43.75 93.75-43.75 93.75-25 87.5-25 87.5-18.75 62.5-18.75 62.5-6.25ZM62.5-43.75L62.5-25 81.25-25 81.25-43.75 62.5-43.75Z" opacity="1" transform="matrix(1,0,0,1,0,0)" fill="white" class="wordmark-text-0" id="SvgjsPath1000"></path></svg></g></svg></g></svg></g></svg></g><g></g></svg></g><defs><mask></mask></defs></svg><rect width="154.5" height="72.1" fill="black" stroke="none" visibility="hidden"></rect></g></mask><linearGradient x1="0" x2="1" y1="0.578" y2="0.595" id="122263dd-9a01-4700-8d39-ad1f39d964a5"><stop stop-color="#6ee2f5" offset="0"></stop><stop stop-color="#6454f0" offset="1"></stop></linearGradient><rect width="154.5" height="72.1" fill="url(#122263dd-9a01-4700-8d39-ad1f39d964a5)" mask="url(#76c0a21c-f215-40d0-84df-2b263d21e314)" data-fill-palette-color="primary"></rect></svg><rect width="154.5" height="72.1" fill="none" stroke="none" visibility="hidden"></rect></g></svg></g></svg>