<svg xmlns="http://www.w3.org/2000/svg" version="1.1" xmlns:xlink="http://www.w3.org/1999/xlink" xmlns:svgjs="http://svgjs.dev/svgjs" width="128" height="128" viewBox="0 0 128 128"><g transform="matrix(0.8046875,0,0,0.8046875,12.333870967741937,38.73464133522727)"><svg viewBox="0 0 155 77" data-background-color="#000000" preserveAspectRatio="xMidYMid meet" height="63" width="128" xmlns="http://www.w3.org/2000/svg" xmlns:xlink="http://www.w3.org/1999/xlink"><g id="tight-bounds" transform="matrix(1,0,0,1,0.25,-0.125)"><svg viewBox="0 0 154.5 77.25" height="77.25" width="154.5"><g><svg viewBox="0 0 154.5 77.25" height="77.25" width="154.5"><g><svg viewBox="0 0 154.5 77.25" height="77.25" width="154.5"><g id="textblocktransform"><svg viewBox="0 0 154.5 77.25" height="77.25" width="154.5" id="textblock"><g><svg viewBox="0 0 154.5 77.25" height="77.25" width="154.5"><g transform="matrix(1,0,0,1,0,0)"><svg width="154.5" viewBox="6.25 -50 87.5 43.75" height="77.25" data-palette-color="url(#3e749e2c-01a4-4074-8e9c-9b2f97cc23ee)"></svg></g></svg></g></svg></g></svg></g><g></g></svg></g><defs></defs><mask id="9984a908-5d05-43a8-bbf2-b713258f38ea"><g id="SvgjsG1288"><svg viewBox="0 0 154.5 77.25" height="77.25" width="154.5"><g><svg viewBox="0 0 154.5 77.25" height="77.25" width="154.5"><g><svg viewBox="0 0 154.5 77.25" height="77.25" width="154.5"><g id="SvgjsG1287"><svg viewBox="0 0 154.5 77.25" height="77.25" width="154.5" id="SvgjsSvg1286"><g><svg viewBox="0 0 154.5 77.25" height="77.25" width="154.5"><g transform="matrix(1,0,0,1,0,0)"><svg width="154.5" viewBox="6.25 -50 87.5 43.75" height="77.25" data-palette-color="url(#3e749e2c-01a4-4074-8e9c-9b2f97cc23ee)"><path d="M43.75-6.25L6.25-6.25 6.25-12.5 18.75-12.5 18.75-43.75 6.25-43.75 6.25-50 43.75-50 43.75-43.75 31.25-43.75 31.25-12.5 43.75-12.5 43.75-6.25ZM87.5-6.25L56.25-6.25 56.25-12.5 50-12.5 50-18.75 62.5-18.75 62.5-12.5 81.25-12.5 81.25-25 56.25-25 56.25-31.25 50-31.25 50-43.75 56.25-43.75 56.25-50 87.5-50 87.5-43.75 93.75-43.75 93.75-37.5 81.25-37.5 81.25-43.75 62.5-43.75 62.5-31.25 87.5-31.25 87.5-25 93.75-25 93.75-12.5 87.5-12.5 87.5-6.25Z" opacity="1" transform="matrix(1,0,0,1,0,0)" fill="white" class="wordmark-text-0" id="SvgjsPath1285"></path></svg></g></svg></g></svg></g></svg></g><g></g></svg></g><defs><mask></mask></defs></svg><rect width="154.5" height="77.25" fill="black" stroke="none" visibility="hidden"></rect></g></mask><linearGradient x1="0" x2="1" y1="0.578" y2="0.595" id="3e749e2c-01a4-4074-8e9c-9b2f97cc23ee"><stop stop-color="#6ee2f5" offset="0"></stop><stop stop-color="#6454f0" offset="1"></stop></linearGradient><rect width="154.5" height="77.25" fill="url(#3e749e2c-01a4-4074-8e9c-9b2f97cc23ee)" mask="url(#9984a908-5d05-43a8-bbf2-b713258f38ea)" data-fill-palette-color="primary"></rect></svg><rect width="154.5" height="77.25" fill="none" stroke="none" visibility="hidden"></rect></g></svg></g></svg>