<svg xmlns="http://www.w3.org/2000/svg" version="1.1" xmlns:xlink="http://www.w3.org/1999/xlink" xmlns:svgjs="http://svgjs.dev/svgjs" width="1500" height="1500" viewBox="0 0 1500 1500"><rect width="1500" height="1500" fill="#000000"></rect><g transform="matrix(0.6666666666666666,0,0,0.6666666666666666,250.16994382022466,644.2369066666666)"><svg viewBox="0 0 356 75" data-background-color="#000000" preserveAspectRatio="xMidYMid meet" height="316" width="1500" xmlns="http://www.w3.org/2000/svg" xmlns:xlink="http://www.w3.org/1999/xlink"><g id="tight-bounds" transform="matrix(1,0,0,1,-0.06049999999996203,0.1529999999999916)"><svg viewBox="0 0 356.12052 74.69399658591549" height="74.69399658591549" width="356.12052"><rect width="356.121" height="74.694" fill="url(#b14b0fbe-3e3f-48f2-a680-ba40f3c60668)" mask="url(#b6bd95ca-239f-40ed-a412-4efeac69bccc)" data-fill-palette-color="tertiary"></rect><g><svg viewBox="0 0 356.12052 74.69399658591549" height="74.69399658591549" width="356.12052"><g><svg viewBox="0 0 356.12052 74.69399658591549" height="74.69399658591549" width="356.12052"><g><path d="M0 74.694v-74.694h356.121v74.694z" fill="url(#b14b0fbe-3e3f-48f2-a680-ba40f3c60668)" stroke="transparent" stroke-width="0" rx="0%" data-fill-palette-color="tertiary"></path><path d="M3.283 71.411v-68.128h349.554v68.128z" fill="#000000" stroke="transparent" stroke-width="0" rx="0%" data-fill-palette-color="quaternary"></path><path d="M9.85 64.844v-54.994h336.421v54.994z" fill="url(#b14b0fbe-3e3f-48f2-a680-ba40f3c60668)" stroke="transparent" stroke-width="0" data-fill-palette-color="tertiary"></path></g><g transform="matrix(1,0,0,1,19.69974,19.69974)" id="textblocktransform"><svg viewBox="0 0 316.72104 35.29451658591549" height="35.29451658591549" width="316.72104" id="textblock"><g><svg viewBox="0 0 316.72104 17.843438873239435" height="17.843438873239435" width="316.72104"><g transform="matrix(1,0,0,1,0,0)"><svg width="316.72104" viewBox="6.25 -50 887.46 43.75" height="17.843438873239435" data-palette-color="#000000"><path d="M43.75-6.25L6.25-6.25 6.25-12.5 18.75-12.5 18.75-43.75 6.25-43.75 6.25-50 43.75-50 43.75-43.75 31.25-43.75 31.25-12.5 43.75-12.5 43.75-6.25ZM62.5-6.25L50-6.25 50-37.5 87.5-37.5 87.5-31.25 93.75-31.25 93.75-6.25 81.25-6.25 81.25-31.25 62.5-31.25 62.5-6.25ZM131.25-6.25L118.75-6.25 118.75-31.25 106.25-31.25 106.25-37.5 118.75-37.5 118.75-43.75 125-43.75 125-50 143.75-50 143.75-43.75 131.25-43.75 131.25-37.5 143.75-37.5 143.75-31.25 131.25-31.25 131.25-6.25ZM187.49-6.25L156.24-6.25 156.24-12.5 149.99-12.5 149.99-31.25 156.24-31.25 156.24-37.5 187.49-37.5 187.49-31.25 193.74-31.25 193.74-12.5 187.49-12.5 187.49-6.25ZM162.49-31.25L162.49-12.5 181.24-12.5 181.24-31.25 162.49-31.25ZM206.24-6.25L199.99-6.25 199.99-37.5 237.49-37.5 237.49-31.25 243.74-31.25 243.74-6.25 231.24-6.25 231.24-31.25 224.99-31.25 224.99-6.25 212.49-6.25 212.49-31.25 206.24-31.25 206.24-6.25ZM287.49-6.25L256.24-6.25 256.24-12.5 249.99-12.5 249.99-31.25 256.24-31.25 256.24-37.5 287.49-37.5 287.49-31.25 293.74-31.25 293.74-12.5 287.49-12.5 287.49-6.25ZM262.49-31.25L262.49-12.5 281.24-12.5 281.24-31.25 262.49-31.25ZM343.74-6.25L306.24-6.25 306.24-12.5 299.99-12.5 299.99-37.5 312.49-37.5 312.49-12.5 331.24-12.5 331.24-37.5 343.74-37.5 343.74-6.25ZM387.48-6.25L349.98-6.25 349.98-12.5 381.23-12.5 381.23-18.75 356.23-18.75 356.23-25 349.98-25 349.98-31.25 356.23-31.25 356.23-37.5 387.48-37.5 387.48-31.25 362.48-31.25 362.48-25 387.48-25 387.48-18.75 393.73-18.75 393.73-12.5 387.48-12.5 387.48-6.25ZM487.48-6.25L456.23-6.25 456.23-12.5 449.98-12.5 449.98-18.75 462.48-18.75 462.48-12.5 481.23-12.5 481.23-25 456.23-25 456.23-31.25 449.98-31.25 449.98-43.75 456.23-43.75 456.23-50 487.48-50 487.48-43.75 493.73-43.75 493.73-37.5 481.23-37.5 481.23-43.75 462.48-43.75 462.48-31.25 487.48-31.25 487.48-25 493.73-25 493.73-12.5 487.48-12.5 487.48-6.25ZM537.48-6.25L506.23-6.25 506.23-12.5 499.98-12.5 499.98-31.25 506.23-31.25 506.23-37.5 537.48-37.5 537.48-31.25 543.73-31.25 543.73-12.5 537.48-12.5 537.48-6.25ZM512.48-31.25L512.48-12.5 531.23-12.5 531.23-31.25 512.48-31.25ZM593.72-6.25L556.22-6.25 556.22-12.5 568.72-12.5 568.72-43.75 562.47-43.75 562.47-50 581.22-50 581.22-12.5 593.72-12.5 593.72-6.25ZM643.72-6.25L606.22-6.25 606.22-12.5 599.97-12.5 599.97-37.5 612.47-37.5 612.47-12.5 631.22-12.5 631.22-37.5 643.72-37.5 643.72-6.25ZM681.22-6.25L668.72-6.25 668.72-31.25 656.22-31.25 656.22-37.5 668.72-37.5 668.72-50 681.22-50 681.22-37.5 693.72-37.5 693.72-31.25 681.22-31.25 681.22-6.25ZM731.21-43.75L718.71-43.75 718.71-50 731.21-50 731.21-43.75ZM743.71-6.25L706.21-6.25 706.21-12.5 718.71-12.5 718.71-31.25 712.46-31.25 712.46-37.5 731.21-37.5 731.21-12.5 743.71-12.5 743.71-6.25ZM787.46-6.25L756.21-6.25 756.21-12.5 749.96-12.5 749.96-31.25 756.21-31.25 756.21-37.5 787.46-37.5 787.46-31.25 793.71-31.25 793.71-12.5 787.46-12.5 787.46-6.25ZM762.46-31.25L762.46-12.5 781.21-12.5 781.21-31.25 762.46-31.25ZM812.46-6.25L799.96-6.25 799.96-37.5 837.46-37.5 837.46-31.25 843.71-31.25 843.71-6.25 831.21-6.25 831.21-31.25 812.46-31.25 812.46-6.25ZM887.46-6.25L849.96-6.25 849.96-12.5 881.21-12.5 881.21-18.75 856.21-18.75 856.21-25 849.96-25 849.96-31.25 856.21-31.25 856.21-37.5 887.46-37.5 887.46-31.25 862.46-31.25 862.46-25 887.46-25 887.46-18.75 893.71-18.75 893.71-12.5 887.46-12.5 887.46-6.25Z" opacity="1" transform="matrix(1,0,0,1,0,0)" fill="#000000" class="wordmark-text-0" data-fill-palette-color="quaternary" id="text-0"></path></svg></g></svg></g><g transform="matrix(1,0,0,1,0,24.410018873239437)"><svg viewBox="0 0 316.72104 10.884497712676055" height="10.884497712676055" width="316.72104"><g transform="matrix(1,0,0,1,0,0)"><svg width="316.72104" viewBox="4 -32.05 1203.22 41.35" height="10.884497712676055" data-palette-color="#000000"><path d="M35.35 0.5L35.35 0.5Q32.9 0.5 31.1-0.5 29.3-1.5 27.55-3.2L27.55-3.2Q25.65-5.2 22.95-7.8L22.95-7.8Q21.7-9.1 20.4-9.95 19.1-10.8 17.48-11.25 15.85-11.7 13.45-11.7L13.45-11.7 11.1-11.7 11.1 0 4.5 0 4.5-25.4 4-29.4 11.1-29.4 11.1-16.6 13.9-16.6Q14.9-16.6 15.55-16.85 16.2-17.1 16.75-17.65L16.75-17.65Q18.15-19.05 19.95-21.15 21.75-23.25 23.48-25.48 25.2-27.7 26.45-29.4L26.45-29.4 34.55-29.4 32.5-26.4Q31.1-24.95 29.5-23.25 27.9-21.55 26.35-19.93 24.8-18.3 23.55-17.07 22.3-15.85 21.7-15.3L21.7-15.3Q23.05-14.85 24.18-14.15 25.3-13.45 26.95-12.1L26.95-12.1Q28.2-11.1 29.38-10.05 30.55-9 32.1-7.55L32.1-7.55Q33.85-5.95 35.4-5.2 36.95-4.45 38.02-4.25 39.1-4.05 39.4-4.05L39.4-4.05 38.4 0Q38.25 0.15 37.5 0.33 36.75 0.5 35.35 0.5ZM76.27 0L66.22 0Q63.72 0 62.37-0.65 61.02-1.3 60.44-2.3 59.87-3.3 59.74-4.4 59.62-5.5 59.62-6.4L59.62-6.4 59.62-16Q59.62-16.75 59.74-17.82 59.87-18.9 60.44-19.95 61.02-21 62.39-21.7 63.77-22.4 66.22-22.4L66.22-22.4 76.97-22.4Q80.27-22.4 82.14-21.78 84.02-21.15 84.79-19.75 85.57-18.35 85.57-16L85.57-16 85.57-8.6 76.82-8.6Q72.32-8.6 69.49-8.8 66.67-9 65.72-9.05L65.72-9.05 65.72-6.3Q65.67-4.3 68.12-4.3L68.12-4.3 70.67-4.3Q73.37-4.3 75.94-4.38 78.52-4.45 80.67-4.58 82.82-4.7 84.12-4.8L84.12-4.8 86.12-1.55Q86.12 0 76.27 0L76.27 0ZM65.72-16.1L65.72-12.9 79.47-12.9 79.47-16.1Q79.47-17.1 79.24-17.5 79.02-17.9 77.92-18 76.82-18.1 74.17-18.1L74.17-18.1 68.12-18.1Q65.72-18.1 65.72-16.1L65.72-16.1ZM124.48 0L114.43 0Q111.93 0 110.58-0.65 109.23-1.3 108.66-2.3 108.08-3.3 107.96-4.4 107.83-5.5 107.83-6.4L107.83-6.4 107.83-16Q107.83-16.75 107.96-17.82 108.08-18.9 108.66-19.95 109.23-21 110.61-21.7 111.98-22.4 114.43-22.4L114.43-22.4 125.18-22.4Q128.48-22.4 130.36-21.78 132.23-21.15 133.01-19.75 133.78-18.35 133.78-16L133.78-16 133.78-8.6 125.03-8.6Q120.53-8.6 117.71-8.8 114.88-9 113.93-9.05L113.93-9.05 113.93-6.3Q113.88-4.3 116.33-4.3L116.33-4.3 118.88-4.3Q121.58-4.3 124.16-4.38 126.73-4.45 128.88-4.58 131.03-4.7 132.33-4.8L132.33-4.8 134.33-1.55Q134.33 0 124.48 0L124.48 0ZM113.93-16.1L113.93-12.9 127.68-12.9 127.68-16.1Q127.68-17.1 127.46-17.5 127.23-17.9 126.13-18 125.03-18.1 122.38-18.1L122.38-18.1 116.33-18.1Q113.93-18.1 113.93-16.1L113.93-16.1ZM162.65 9.3L156.55 9.3 156.55-22.4 160.65-22.4 161.9-21.75Q164.15-22 167.27-22.2 170.4-22.4 174.4-22.4L174.4-22.4 176.95-22.4Q179.45-22.4 180.8-21.75 182.15-21.1 182.72-20.1 183.3-19.1 183.42-18 183.55-16.9 183.55-16L183.55-16 183.55-6.4Q183.55-5.65 183.42-4.58 183.3-3.5 182.72-2.45 182.15-1.4 180.8-0.7 179.45 0 176.95 0L176.95 0 174.4 0Q170.6 0 167.65-0.2 164.7-0.4 162.65-0.6L162.65-0.6 162.65 9.3ZM164.2-4.3L164.2-4.3 175.05-4.3Q176-4.3 176.72-4.8 177.45-5.3 177.45-6.3L177.45-6.3 177.45-16.1Q177.5-17.2 176.92-17.65 176.35-18.1 175.05-18.1L175.05-18.1 172.55-18.1Q169.35-18.1 166.87-17.98 164.4-17.85 162.65-17.7L162.65-17.7 162.65-5.85Q162.65-4.75 162.87-4.53 163.1-4.3 164.2-4.3ZM209.81-25.55L209.81-25.55Q207.96-25.55 207.11-26.3 206.26-27.05 206.26-28.8L206.26-28.8Q206.26-30.6 207.09-31.33 207.91-32.05 209.81-32.05L209.81-32.05Q211.71-32.05 212.56-31.33 213.41-30.6 213.41-28.8L213.41-28.8Q213.41-27.1 212.56-26.33 211.71-25.55 209.81-25.55ZM212.86 0L206.76 0 206.76-22.4 212.86-22.4 212.86 0ZM242.73 0L236.63 0 236.63-22.4 240.73-22.4 242.73-21.4Q244.83-21.8 247.78-22.1 250.73-22.4 254.53-22.4L254.53-22.4 257.03-22.4Q259.53-22.4 260.88-21.7 262.23-21 262.8-19.95 263.38-18.9 263.5-17.82 263.63-16.75 263.63-16L263.63-16 263.63 0 257.53 0 257.53-16.1Q257.53-18.1 255.13-18.1L255.13-18.1 244.23-18.1Q243.28-18.1 243-17.93 242.73-17.75 242.73-17L242.73-17 242.73 0ZM305.54 8.8L303.04 8.8Q297.54 8.8 294.09 8.7 290.64 8.6 288.79 8.4 286.94 8.2 286.27 7.9 285.59 7.6 285.59 7.25L285.59 7.25 287.09 3.5Q287.89 3.75 289.92 4.13 291.94 4.5 295.09 4.5L295.09 4.5 303.64 4.5Q305.49 4.5 306.27 3.95 307.04 3.4 307.04 2L307.04 2 307.04-1Q304.89-0.6 301.97-0.3 299.04 0 295.24 0L295.24 0 292.74 0Q290.24 0 288.89-0.65 287.54-1.3 286.97-2.3 286.39-3.3 286.27-4.4 286.14-5.5 286.14-6.4L286.14-6.4 286.14-16Q286.14-16.75 286.27-17.82 286.39-18.9 286.97-19.95 287.54-21 288.92-21.7 290.29-22.4 292.74-22.4L292.74-22.4 295.29-22.4Q300.54-22.4 303.47-22.2 306.39-22 307.74-21.75L307.74-21.75 309.04-22.4 313.14-22.4 313.14 2.4Q313.14 3.3 312.87 4.4 312.59 5.5 311.79 6.5 310.99 7.5 309.49 8.15 307.99 8.8 305.54 8.8L305.54 8.8ZM294.64-4.3L294.64-4.3 305.49-4.3Q306.64-4.3 306.84-4.5 307.04-4.7 307.04-5.8L307.04-5.8 307.04-17.75Q305.34-17.85 302.74-17.98 300.14-18.1 297.19-18.1L297.19-18.1 294.64-18.1Q292.24-18.1 292.24-16.1L292.24-16.1 292.24-6.3Q292.19-4.3 294.64-4.3ZM372.17 0L365.57 0 365.57-29.4 372.17-29.4 372.17 0ZM414.04 0L407.44 0 407.39-24.65 394.39-24.65 394.39-29.45 427.09-29.45 427.09-24.65 414.04-24.65 414.04 0ZM499.72 0L483.12 0Q479.72 0 478.12-0.3 476.52-0.6 476.52-1L476.52-1 478.52-5.35Q479.67-5.15 484.24-4.98 488.82-4.8 496.82-4.8L496.82-4.8 497.77-4.8Q499.92-4.8 500.82-5.58 501.72-6.35 501.72-8.2L501.72-8.2 501.72-9.2Q501.72-10.95 500.99-11.7 500.27-12.45 497.77-12.45L497.77-12.45 486.17-12.45Q481.12-12.45 478.82-14.33 476.52-16.2 476.52-20.45L476.52-20.45 476.52-21.25Q476.52-23.45 477.34-25.3 478.17-27.15 480.17-28.28 482.17-29.4 485.67-29.4L485.67-29.4 499.27-29.4Q502.67-29.4 504.77-29.05 506.87-28.7 506.87-28.3L506.87-28.3 505.87-24.1Q504.57-24.25 499.97-24.43 495.37-24.6 487.62-24.6L487.62-24.6 487.07-24.65Q484.77-24.65 483.97-23.73 483.17-22.8 483.12-21.4L483.12-21.4 483.12-20.55Q483.12-18.9 484.04-18.07 484.97-17.25 487.12-17.25L487.12-17.25 498.22-17.25Q501.42-17.25 503.67-16.6 505.92-15.95 507.12-14.23 508.32-12.5 508.32-9.15L508.32-9.15 508.32-8.35Q508.32-4.6 506.39-2.3 504.47 0 499.72 0L499.72 0ZM535.09-25.55L535.09-25.55Q533.24-25.55 532.39-26.3 531.54-27.05 531.54-28.8L531.54-28.8Q531.54-30.6 532.36-31.33 533.19-32.05 535.09-32.05L535.09-32.05Q536.99-32.05 537.84-31.33 538.69-30.6 538.69-28.8L538.69-28.8Q538.69-27.1 537.84-26.33 536.99-25.55 535.09-25.55ZM538.14 0L532.04 0 532.04-22.4 538.14-22.4 538.14 0ZM568 0L561.9 0 561.9-22.4 566-22.4 567.25-21.8Q568.7-22.05 570.8-22.23 572.9-22.4 575.8-22.4L575.8-22.4 578.3-22.4Q579.75-22.4 581.1-22.03 582.45-21.65 583.1-20.95L583.1-20.95Q584.4-21.6 586.7-22 589-22.4 592.7-22.4L592.7-22.4 595.2-22.4Q597.7-22.4 599.05-21.7 600.4-21 600.98-19.95 601.55-18.9 601.68-17.82 601.8-16.75 601.8-16L601.8-16 601.8 0 595.7 0 595.7-16.1Q595.7-18.1 593.3-18.1L593.3-18.1 586.3-18.1Q585.5-18.1 585.2-17.9 584.9-17.7 584.9-17L584.9-17 584.9 0 578.8 0 578.8-16.1Q578.8-18.1 576.4-18.1L576.4-18.1 569.5-18.1Q568.55-18.1 568.28-17.93 568-17.75 568-17L568-17 568 0ZM630.87 9.3L624.77 9.3 624.77-22.4 628.87-22.4 630.12-21.75Q632.37-22 635.49-22.2 638.62-22.4 642.62-22.4L642.62-22.4 645.17-22.4Q647.67-22.4 649.02-21.75 650.37-21.1 650.94-20.1 651.52-19.1 651.64-18 651.77-16.9 651.77-16L651.77-16 651.77-6.4Q651.77-5.65 651.64-4.58 651.52-3.5 650.94-2.45 650.37-1.4 649.02-0.7 647.67 0 645.17 0L645.17 0 642.62 0Q638.82 0 635.87-0.2 632.92-0.4 630.87-0.6L630.87-0.6 630.87 9.3ZM632.42-4.3L632.42-4.3 643.27-4.3Q644.22-4.3 644.94-4.8 645.67-5.3 645.67-6.3L645.67-6.3 645.67-16.1Q645.72-17.2 645.14-17.65 644.57-18.1 643.27-18.1L643.27-18.1 640.77-18.1Q637.57-18.1 635.09-17.98 632.62-17.85 630.87-17.7L630.87-17.7 630.87-5.85Q630.87-4.75 631.09-4.53 631.32-4.3 632.42-4.3ZM681.08 0L674.98 0 674.98-27.7 674.48-31.7 681.08-31.7 681.08 0ZM720.45 0L710.4 0Q707.9 0 706.55-0.65 705.2-1.3 704.62-2.3 704.05-3.3 703.92-4.4 703.8-5.5 703.8-6.4L703.8-6.4 703.8-16Q703.8-16.75 703.92-17.82 704.05-18.9 704.62-19.95 705.2-21 706.57-21.7 707.95-22.4 710.4-22.4L710.4-22.4 721.15-22.4Q724.45-22.4 726.32-21.78 728.2-21.15 728.97-19.75 729.75-18.35 729.75-16L729.75-16 729.75-8.6 721-8.6Q716.5-8.6 713.67-8.8 710.85-9 709.9-9.05L709.9-9.05 709.9-6.3Q709.85-4.3 712.3-4.3L712.3-4.3 714.85-4.3Q717.55-4.3 720.12-4.38 722.7-4.45 724.85-4.58 727-4.7 728.3-4.8L728.3-4.8 730.3-1.55Q730.3 0 720.45 0L720.45 0ZM709.9-16.1L709.9-12.9 723.65-12.9 723.65-16.1Q723.65-17.1 723.42-17.5 723.2-17.9 722.1-18 721-18.1 718.35-18.1L718.35-18.1 712.3-18.1Q709.9-18.1 709.9-16.1L709.9-16.1ZM800.53 0L786.38 0Q783.03 0 781.63-0.35 780.23-0.7 780.23-1.05L780.23-1.05 781.73-4.8Q783.18-4.65 787.05-4.48 790.93-4.3 796.63-4.3L796.63-4.3 799.13-4.3Q800.38-4.3 800.7-4.98 801.03-5.65 801.03-6.8L801.03-6.8Q801.03-7.95 800.65-8.65 800.28-9.35 799.13-9.35L799.13-9.35 786.83-9.35Q783.33-9.35 781.78-10.68 780.23-12 780.23-14.65L780.23-14.65 780.23-16.65Q780.23-17.35 780.38-18.3 780.53-19.25 781.13-20.2 781.73-21.15 783.08-21.78 784.43-22.4 786.83-22.4L786.83-22.4 800.63-22.4Q803.63-22.4 804.88-22.05 806.13-21.7 806.13-21.35L806.13-21.35 805.63-17.6Q804.18-17.75 800.28-17.93 796.38-18.1 790.73-18.1L790.73-18.1 788.23-18.1Q786.98-18.1 786.65-17.43 786.33-16.75 786.33-15.85L786.33-15.85Q786.33-14.9 786.65-14.28 786.98-13.65 788.23-13.65L788.23-13.65 800.53-13.65Q803.93-13.65 805.53-12.25 807.13-10.85 807.13-8.7L807.13-8.7 807.13-5.75Q807.13-4.85 807-3.85 806.88-2.85 806.28-1.98 805.68-1.1 804.33-0.55 802.98 0 800.53 0L800.53 0ZM833.39-25.55L833.39-25.55Q831.54-25.55 830.69-26.3 829.84-27.05 829.84-28.8L829.84-28.8Q829.84-30.6 830.67-31.33 831.49-32.05 833.39-32.05L833.39-32.05Q835.29-32.05 836.14-31.33 836.99-30.6 836.99-28.8L836.99-28.8Q836.99-27.1 836.14-26.33 835.29-25.55 833.39-25.55ZM836.44 0L830.34 0 830.34-22.4 836.44-22.4 836.44 0ZM866.31 0L860.21 0 860.21-22.4 864.31-22.4 866.31-21.4Q868.41-21.8 871.36-22.1 874.31-22.4 878.11-22.4L878.11-22.4 880.61-22.4Q883.11-22.4 884.46-21.7 885.81-21 886.38-19.95 886.96-18.9 887.08-17.82 887.21-16.75 887.21-16L887.21-16 887.21 0 881.11 0 881.11-16.1Q881.11-18.1 878.71-18.1L878.71-18.1 867.81-18.1Q866.86-18.1 866.58-17.93 866.31-17.75 866.31-17L866.31-17 866.31 0ZM926.32 0L916.27 0Q913.77 0 912.42-0.65 911.07-1.3 910.5-2.3 909.92-3.3 909.8-4.4 909.67-5.5 909.67-6.4L909.67-6.4 909.67-16Q909.67-16.75 909.8-17.82 909.92-18.9 910.5-19.95 911.07-21 912.45-21.7 913.82-22.4 916.27-22.4L916.27-22.4 923.22-22.4Q929.47-22.4 932.1-22.08 934.72-21.75 934.72-21.4L934.72-21.4 933.72-17.6Q932.32-17.7 930.17-17.82 928.02-17.95 925.55-18.03 923.07-18.1 920.72-18.1L920.72-18.1 918.17-18.1Q915.77-18.1 915.77-16.1L915.77-16.1 915.77-6.3Q915.72-4.3 918.17-4.3L918.17-4.3 920.72-4.3Q923.42-4.3 926-4.38 928.57-4.45 930.72-4.58 932.87-4.7 934.17-4.8L934.17-4.8 936.17-1.55Q936.17 0 926.32 0L926.32 0ZM973.04 0L962.99 0Q960.49 0 959.14-0.65 957.79-1.3 957.21-2.3 956.64-3.3 956.51-4.4 956.39-5.5 956.39-6.4L956.39-6.4 956.39-16Q956.39-16.75 956.51-17.82 956.64-18.9 957.21-19.95 957.79-21 959.16-21.7 960.54-22.4 962.99-22.4L962.99-22.4 973.74-22.4Q977.04-22.4 978.91-21.78 980.79-21.15 981.56-19.75 982.34-18.35 982.34-16L982.34-16 982.34-8.6 973.59-8.6Q969.09-8.6 966.26-8.8 963.44-9 962.49-9.05L962.49-9.05 962.49-6.3Q962.44-4.3 964.89-4.3L964.89-4.3 967.44-4.3Q970.14-4.3 972.71-4.38 975.29-4.45 977.44-4.58 979.59-4.7 980.89-4.8L980.89-4.8 982.89-1.55Q982.89 0 973.04 0L973.04 0ZM962.49-16.1L962.49-12.9 976.24-12.9 976.24-16.1Q976.24-17.1 976.01-17.5 975.79-17.9 974.69-18 973.59-18.1 970.94-18.1L970.94-18.1 964.89-18.1Q962.49-18.1 962.49-16.1L962.49-16.1ZM1044.27 0L1037.67 0 1037.67-24.6 1031.67-24.15 1031.32-28.4 1044.27-29.9 1044.27 0ZM1088.59 0L1077.24 0Q1072.99 0 1071.09-0.45 1069.19-0.9 1068.64-1.5L1068.64-1.5 1070.59-5.35Q1071.39-5.25 1073.24-5.1 1075.09-4.95 1078.46-4.88 1081.84-4.8 1087.19-4.8L1087.19-4.8Q1088.79-4.8 1089.61-5.35 1090.44-5.9 1090.76-6.73 1091.09-7.55 1091.09-8.35L1091.09-8.35 1091.09-11.6Q1090.64-11.55 1088.66-11.38 1086.69-11.2 1082.54-11.2L1082.54-11.2 1077.09-11.2Q1072.04-11.2 1070.01-13.33 1067.99-15.45 1067.99-19.8L1067.99-19.8 1067.99-20.5Q1067.99-22 1068.21-23.58 1068.44-25.15 1069.29-26.45 1070.14-27.75 1071.99-28.58 1073.84-29.4 1077.04-29.4L1077.04-29.4 1088.59-29.4Q1091.99-29.4 1093.84-28.45 1095.69-27.5 1096.51-26.05 1097.34-24.6 1097.51-23.1 1097.69-21.6 1097.69-20.5L1097.69-20.5 1097.69-8.95Q1097.69-7.95 1097.51-6.45 1097.34-4.95 1096.54-3.48 1095.74-2 1093.86-1 1091.99 0 1088.59 0L1088.59 0ZM1078.54-15.6L1078.54-15.6 1091.09-15.6 1091.09-21.1Q1091.09-22.5 1090.16-23.55 1089.24-24.6 1087.19-24.6L1087.19-24.6 1078.54-24.6Q1076.24-24.6 1075.41-23.45 1074.59-22.3 1074.59-21.1L1074.59-21.1 1074.59-19.2Q1074.59-17.5 1075.34-16.55 1076.09-15.6 1078.54-15.6ZM1142 0L1130.65 0Q1126.4 0 1124.5-0.45 1122.6-0.9 1122.05-1.5L1122.05-1.5 1124-5.35Q1124.8-5.25 1126.65-5.1 1128.5-4.95 1131.88-4.88 1135.25-4.8 1140.6-4.8L1140.6-4.8Q1142.2-4.8 1143.03-5.35 1143.85-5.9 1144.18-6.73 1144.5-7.55 1144.5-8.35L1144.5-8.35 1144.5-11.6Q1144.05-11.55 1142.08-11.38 1140.1-11.2 1135.95-11.2L1135.95-11.2 1130.5-11.2Q1125.45-11.2 1123.43-13.33 1121.4-15.45 1121.4-19.8L1121.4-19.8 1121.4-20.5Q1121.4-22 1121.63-23.58 1121.85-25.15 1122.7-26.45 1123.55-27.75 1125.4-28.58 1127.25-29.4 1130.45-29.4L1130.45-29.4 1142-29.4Q1145.4-29.4 1147.25-28.45 1149.1-27.5 1149.93-26.05 1150.75-24.6 1150.93-23.1 1151.1-21.6 1151.1-20.5L1151.1-20.5 1151.1-8.95Q1151.1-7.95 1150.93-6.45 1150.75-4.95 1149.95-3.48 1149.15-2 1147.28-1 1145.4 0 1142 0L1142 0ZM1131.95-15.6L1131.95-15.6 1144.5-15.6 1144.5-21.1Q1144.5-22.5 1143.58-23.55 1142.65-24.6 1140.6-24.6L1140.6-24.6 1131.95-24.6Q1129.65-24.6 1128.83-23.45 1128-22.3 1128-21.1L1128-21.1 1128-19.2Q1128-17.5 1128.75-16.55 1129.5-15.6 1131.95-15.6ZM1200.52 0L1193.92 0 1193.92-5.4 1174.32-5.4 1174.32-10.3 1191.27-29.4 1200.52-29.4 1200.52-10.2 1207.22-10.2 1207.22-5.4 1200.52-5.4 1200.52 0ZM1182.52-10.7L1182.47-10.2 1193.92-10.2 1193.92-23.3 1193.42-23.3 1182.52-10.7Z" opacity="1" transform="matrix(1,0,0,1,0,0)" fill="#000000" class="slogan-text-1" data-fill-palette-color="quaternary" id="text-1"></path></svg></g></svg></g></svg></g></svg></g><g></g></svg></g><defs></defs><mask id="b6bd95ca-239f-40ed-a412-4efeac69bccc"><g id="SvgjsG1624"><svg viewBox="0 0 356.12052 74.69399658591549" height="74.69399658591549" width="356.12052"><g><svg viewBox="0 0 356.12052 74.69399658591549" height="74.69399658591549" width="356.12052"><g><svg viewBox="0 0 356.12052 74.69399658591549" height="74.69399658591549" width="356.12052"><g><path d="M0 74.694v-74.694h356.121v74.694z" fill="white" stroke="transparent" stroke-width="0" rx="0%"></path><path d="M3.283 71.411v-68.128h349.554v68.128z" fill="black" stroke="transparent" stroke-width="0" rx="0%"></path><path d="M9.85 64.844v-54.994h336.421v54.994z" fill="white" stroke="transparent" stroke-width="0"></path></g><g transform="matrix(1,0,0,1,19.69974,19.69974)" id="SvgjsG1623"><svg viewBox="0 0 316.72104 35.29451658591549" height="35.29451658591549" width="316.72104" id="SvgjsSvg1622"><g><svg viewBox="0 0 316.72104 17.843438873239435" height="17.843438873239435" width="316.72104"><g transform="matrix(1,0,0,1,0,0)"><svg width="316.72104" viewBox="6.25 -50 887.46 43.75" height="17.843438873239435" data-palette-color="#000000"><path d="M43.75-6.25L6.25-6.25 6.25-12.5 18.75-12.5 18.75-43.75 6.25-43.75 6.25-50 43.75-50 43.75-43.75 31.25-43.75 31.25-12.5 43.75-12.5 43.75-6.25ZM62.5-6.25L50-6.25 50-37.5 87.5-37.5 87.5-31.25 93.75-31.25 93.75-6.25 81.25-6.25 81.25-31.25 62.5-31.25 62.5-6.25ZM131.25-6.25L118.75-6.25 118.75-31.25 106.25-31.25 106.25-37.5 118.75-37.5 118.75-43.75 125-43.75 125-50 143.75-50 143.75-43.75 131.25-43.75 131.25-37.5 143.75-37.5 143.75-31.25 131.25-31.25 131.25-6.25ZM187.49-6.25L156.24-6.25 156.24-12.5 149.99-12.5 149.99-31.25 156.24-31.25 156.24-37.5 187.49-37.5 187.49-31.25 193.74-31.25 193.74-12.5 187.49-12.5 187.49-6.25ZM162.49-31.25L162.49-12.5 181.24-12.5 181.24-31.25 162.49-31.25ZM206.24-6.25L199.99-6.25 199.99-37.5 237.49-37.5 237.49-31.25 243.74-31.25 243.74-6.25 231.24-6.25 231.24-31.25 224.99-31.25 224.99-6.25 212.49-6.25 212.49-31.25 206.24-31.25 206.24-6.25ZM287.49-6.25L256.24-6.25 256.24-12.5 249.99-12.5 249.99-31.25 256.24-31.25 256.24-37.5 287.49-37.5 287.49-31.25 293.74-31.25 293.74-12.5 287.49-12.5 287.49-6.25ZM262.49-31.25L262.49-12.5 281.24-12.5 281.24-31.25 262.49-31.25ZM343.74-6.25L306.24-6.25 306.24-12.5 299.99-12.5 299.99-37.5 312.49-37.5 312.49-12.5 331.24-12.5 331.24-37.5 343.74-37.5 343.74-6.25ZM387.48-6.25L349.98-6.25 349.98-12.5 381.23-12.5 381.23-18.75 356.23-18.75 356.23-25 349.98-25 349.98-31.25 356.23-31.25 356.23-37.5 387.48-37.5 387.48-31.25 362.48-31.25 362.48-25 387.48-25 387.48-18.75 393.73-18.75 393.73-12.5 387.48-12.5 387.48-6.25ZM487.48-6.25L456.23-6.25 456.23-12.5 449.98-12.5 449.98-18.75 462.48-18.75 462.48-12.5 481.23-12.5 481.23-25 456.23-25 456.23-31.25 449.98-31.25 449.98-43.75 456.23-43.75 456.23-50 487.48-50 487.48-43.75 493.73-43.75 493.73-37.5 481.23-37.5 481.23-43.75 462.48-43.75 462.48-31.25 487.48-31.25 487.48-25 493.73-25 493.73-12.5 487.48-12.5 487.48-6.25ZM537.48-6.25L506.23-6.25 506.23-12.5 499.98-12.5 499.98-31.25 506.23-31.25 506.23-37.5 537.48-37.5 537.48-31.25 543.73-31.25 543.73-12.5 537.48-12.5 537.48-6.25ZM512.48-31.25L512.48-12.5 531.23-12.5 531.23-31.25 512.48-31.25ZM593.72-6.25L556.22-6.25 556.22-12.5 568.72-12.5 568.72-43.75 562.47-43.75 562.47-50 581.22-50 581.22-12.5 593.72-12.5 593.72-6.25ZM643.72-6.25L606.22-6.25 606.22-12.5 599.97-12.5 599.97-37.5 612.47-37.5 612.47-12.5 631.22-12.5 631.22-37.5 643.72-37.5 643.72-6.25ZM681.22-6.25L668.72-6.25 668.72-31.25 656.22-31.25 656.22-37.5 668.72-37.5 668.72-50 681.22-50 681.22-37.5 693.72-37.5 693.72-31.25 681.22-31.25 681.22-6.25ZM731.21-43.75L718.71-43.75 718.71-50 731.21-50 731.21-43.75ZM743.71-6.25L706.21-6.25 706.21-12.5 718.71-12.5 718.71-31.25 712.46-31.25 712.46-37.5 731.21-37.5 731.21-12.5 743.71-12.5 743.71-6.25ZM787.46-6.25L756.21-6.25 756.21-12.5 749.96-12.5 749.96-31.25 756.21-31.25 756.21-37.5 787.46-37.5 787.46-31.25 793.71-31.25 793.71-12.5 787.46-12.5 787.46-6.25ZM762.46-31.25L762.46-12.5 781.21-12.5 781.21-31.25 762.46-31.25ZM812.46-6.25L799.96-6.25 799.96-37.5 837.46-37.5 837.46-31.25 843.71-31.25 843.71-6.25 831.21-6.25 831.21-31.25 812.46-31.25 812.46-6.25ZM887.46-6.25L849.96-6.25 849.96-12.5 881.21-12.5 881.21-18.75 856.21-18.75 856.21-25 849.96-25 849.96-31.25 856.21-31.25 856.21-37.5 887.46-37.5 887.46-31.25 862.46-31.25 862.46-25 887.46-25 887.46-18.75 893.71-18.75 893.71-12.5 887.46-12.5 887.46-6.25Z" opacity="1" transform="matrix(1,0,0,1,0,0)" fill="black" class="wordmark-text-0" id="SvgjsPath1621"></path></svg></g></svg></g><g transform="matrix(1,0,0,1,0,24.410018873239437)"><svg viewBox="0 0 316.72104 10.884497712676055" height="10.884497712676055" width="316.72104"><g transform="matrix(1,0,0,1,0,0)"><svg width="316.72104" viewBox="4 -32.05 1203.22 41.35" height="10.884497712676055" data-palette-color="#000000"><path d="M35.35 0.5L35.35 0.5Q32.9 0.5 31.1-0.5 29.3-1.5 27.55-3.2L27.55-3.2Q25.65-5.2 22.95-7.8L22.95-7.8Q21.7-9.1 20.4-9.95 19.1-10.8 17.48-11.25 15.85-11.7 13.45-11.7L13.45-11.7 11.1-11.7 11.1 0 4.5 0 4.5-25.4 4-29.4 11.1-29.4 11.1-16.6 13.9-16.6Q14.9-16.6 15.55-16.85 16.2-17.1 16.75-17.65L16.75-17.65Q18.15-19.05 19.95-21.15 21.75-23.25 23.48-25.48 25.2-27.7 26.45-29.4L26.45-29.4 34.55-29.4 32.5-26.4Q31.1-24.95 29.5-23.25 27.9-21.55 26.35-19.93 24.8-18.3 23.55-17.07 22.3-15.85 21.7-15.3L21.7-15.3Q23.05-14.85 24.18-14.15 25.3-13.45 26.95-12.1L26.95-12.1Q28.2-11.1 29.38-10.05 30.55-9 32.1-7.55L32.1-7.55Q33.85-5.95 35.4-5.2 36.95-4.45 38.02-4.25 39.1-4.05 39.4-4.05L39.4-4.05 38.4 0Q38.25 0.15 37.5 0.33 36.75 0.5 35.35 0.5ZM76.27 0L66.22 0Q63.72 0 62.37-0.65 61.02-1.3 60.44-2.3 59.87-3.3 59.74-4.4 59.62-5.5 59.62-6.4L59.62-6.4 59.62-16Q59.62-16.75 59.74-17.82 59.87-18.9 60.44-19.95 61.02-21 62.39-21.7 63.77-22.4 66.22-22.4L66.22-22.4 76.97-22.4Q80.27-22.4 82.14-21.78 84.02-21.15 84.79-19.75 85.57-18.35 85.57-16L85.57-16 85.57-8.6 76.82-8.6Q72.32-8.6 69.49-8.8 66.67-9 65.72-9.05L65.72-9.05 65.72-6.3Q65.67-4.3 68.12-4.3L68.12-4.3 70.67-4.3Q73.37-4.3 75.94-4.38 78.52-4.45 80.67-4.58 82.82-4.7 84.12-4.8L84.12-4.8 86.12-1.55Q86.12 0 76.27 0L76.27 0ZM65.72-16.1L65.72-12.9 79.47-12.9 79.47-16.1Q79.47-17.1 79.24-17.5 79.02-17.9 77.92-18 76.82-18.1 74.17-18.1L74.17-18.1 68.12-18.1Q65.72-18.1 65.72-16.1L65.72-16.1ZM124.48 0L114.43 0Q111.93 0 110.58-0.65 109.23-1.3 108.66-2.3 108.08-3.3 107.96-4.4 107.83-5.5 107.83-6.4L107.83-6.4 107.83-16Q107.83-16.75 107.96-17.82 108.08-18.9 108.66-19.95 109.23-21 110.61-21.7 111.98-22.4 114.43-22.4L114.43-22.4 125.18-22.4Q128.48-22.4 130.36-21.78 132.23-21.15 133.01-19.75 133.78-18.35 133.78-16L133.78-16 133.78-8.6 125.03-8.6Q120.53-8.6 117.71-8.8 114.88-9 113.93-9.05L113.93-9.05 113.93-6.3Q113.88-4.3 116.33-4.3L116.33-4.3 118.88-4.3Q121.58-4.3 124.16-4.38 126.73-4.45 128.88-4.58 131.03-4.7 132.33-4.8L132.33-4.8 134.33-1.55Q134.33 0 124.48 0L124.48 0ZM113.93-16.1L113.93-12.9 127.68-12.9 127.68-16.1Q127.68-17.1 127.46-17.5 127.23-17.9 126.13-18 125.03-18.1 122.38-18.1L122.38-18.1 116.33-18.1Q113.93-18.1 113.93-16.1L113.93-16.1ZM162.65 9.3L156.55 9.3 156.55-22.4 160.65-22.4 161.9-21.75Q164.15-22 167.27-22.2 170.4-22.4 174.4-22.4L174.4-22.4 176.95-22.4Q179.45-22.4 180.8-21.75 182.15-21.1 182.72-20.1 183.3-19.1 183.42-18 183.55-16.9 183.55-16L183.55-16 183.55-6.4Q183.55-5.65 183.42-4.58 183.3-3.5 182.72-2.45 182.15-1.4 180.8-0.7 179.45 0 176.95 0L176.95 0 174.4 0Q170.6 0 167.65-0.2 164.7-0.4 162.65-0.6L162.65-0.6 162.65 9.3ZM164.2-4.3L164.2-4.3 175.05-4.3Q176-4.3 176.72-4.8 177.45-5.3 177.45-6.3L177.45-6.3 177.45-16.1Q177.5-17.2 176.92-17.65 176.35-18.1 175.05-18.1L175.05-18.1 172.55-18.1Q169.35-18.1 166.87-17.98 164.4-17.85 162.65-17.7L162.65-17.7 162.65-5.85Q162.65-4.75 162.87-4.53 163.1-4.3 164.2-4.3ZM209.81-25.55L209.81-25.55Q207.96-25.55 207.11-26.3 206.26-27.05 206.26-28.8L206.26-28.8Q206.26-30.6 207.09-31.33 207.91-32.05 209.81-32.05L209.81-32.05Q211.71-32.05 212.56-31.33 213.41-30.6 213.41-28.8L213.41-28.8Q213.41-27.1 212.56-26.33 211.71-25.55 209.81-25.55ZM212.86 0L206.76 0 206.76-22.4 212.86-22.4 212.86 0ZM242.73 0L236.63 0 236.63-22.4 240.73-22.4 242.73-21.4Q244.83-21.8 247.78-22.1 250.73-22.4 254.53-22.4L254.53-22.4 257.03-22.4Q259.53-22.4 260.88-21.7 262.23-21 262.8-19.95 263.38-18.9 263.5-17.82 263.63-16.75 263.63-16L263.63-16 263.63 0 257.53 0 257.53-16.1Q257.53-18.1 255.13-18.1L255.13-18.1 244.23-18.1Q243.28-18.1 243-17.93 242.73-17.75 242.73-17L242.73-17 242.73 0ZM305.54 8.8L303.04 8.8Q297.54 8.8 294.09 8.7 290.64 8.6 288.79 8.4 286.94 8.2 286.27 7.9 285.59 7.6 285.59 7.25L285.59 7.25 287.09 3.5Q287.89 3.75 289.92 4.13 291.94 4.5 295.09 4.5L295.09 4.5 303.64 4.5Q305.49 4.5 306.27 3.95 307.04 3.4 307.04 2L307.04 2 307.04-1Q304.89-0.6 301.97-0.3 299.04 0 295.24 0L295.24 0 292.74 0Q290.24 0 288.89-0.65 287.54-1.3 286.97-2.3 286.39-3.3 286.27-4.4 286.14-5.5 286.14-6.4L286.14-6.4 286.14-16Q286.14-16.75 286.27-17.82 286.39-18.9 286.97-19.95 287.54-21 288.92-21.7 290.29-22.4 292.74-22.4L292.74-22.4 295.29-22.4Q300.54-22.4 303.47-22.2 306.39-22 307.74-21.75L307.74-21.75 309.04-22.4 313.14-22.4 313.14 2.4Q313.14 3.3 312.87 4.4 312.59 5.5 311.79 6.5 310.99 7.5 309.49 8.15 307.99 8.8 305.54 8.8L305.54 8.8ZM294.64-4.3L294.64-4.3 305.49-4.3Q306.64-4.3 306.84-4.5 307.04-4.7 307.04-5.8L307.04-5.8 307.04-17.75Q305.34-17.85 302.74-17.98 300.14-18.1 297.19-18.1L297.19-18.1 294.64-18.1Q292.24-18.1 292.24-16.1L292.24-16.1 292.24-6.3Q292.19-4.3 294.64-4.3ZM372.17 0L365.57 0 365.57-29.4 372.17-29.4 372.17 0ZM414.04 0L407.44 0 407.39-24.65 394.39-24.65 394.39-29.45 427.09-29.45 427.09-24.65 414.04-24.65 414.04 0ZM499.72 0L483.12 0Q479.72 0 478.12-0.3 476.52-0.6 476.52-1L476.52-1 478.52-5.35Q479.67-5.15 484.24-4.98 488.82-4.8 496.82-4.8L496.82-4.8 497.77-4.8Q499.92-4.8 500.82-5.58 501.72-6.35 501.72-8.2L501.72-8.2 501.72-9.2Q501.72-10.95 500.99-11.7 500.27-12.45 497.77-12.45L497.77-12.45 486.17-12.45Q481.12-12.45 478.82-14.33 476.52-16.2 476.52-20.45L476.52-20.45 476.52-21.25Q476.52-23.45 477.34-25.3 478.17-27.15 480.17-28.28 482.17-29.4 485.67-29.4L485.67-29.4 499.27-29.4Q502.67-29.4 504.77-29.05 506.87-28.7 506.87-28.3L506.87-28.3 505.87-24.1Q504.57-24.25 499.97-24.43 495.37-24.6 487.62-24.6L487.62-24.6 487.07-24.65Q484.77-24.65 483.97-23.73 483.17-22.8 483.12-21.4L483.12-21.4 483.12-20.55Q483.12-18.9 484.04-18.07 484.97-17.25 487.12-17.25L487.12-17.25 498.22-17.25Q501.42-17.25 503.67-16.6 505.92-15.95 507.12-14.23 508.32-12.5 508.32-9.15L508.32-9.15 508.32-8.35Q508.32-4.6 506.39-2.3 504.47 0 499.72 0L499.72 0ZM535.09-25.55L535.09-25.55Q533.24-25.55 532.39-26.3 531.54-27.05 531.54-28.8L531.54-28.8Q531.54-30.6 532.36-31.33 533.19-32.05 535.09-32.05L535.09-32.05Q536.99-32.05 537.84-31.33 538.69-30.6 538.69-28.8L538.69-28.8Q538.69-27.1 537.84-26.33 536.99-25.55 535.09-25.55ZM538.14 0L532.04 0 532.04-22.4 538.14-22.4 538.14 0ZM568 0L561.9 0 561.9-22.4 566-22.4 567.25-21.8Q568.7-22.05 570.8-22.23 572.9-22.4 575.8-22.4L575.8-22.4 578.3-22.4Q579.75-22.4 581.1-22.03 582.45-21.65 583.1-20.95L583.1-20.95Q584.4-21.6 586.7-22 589-22.4 592.7-22.4L592.7-22.4 595.2-22.4Q597.7-22.4 599.05-21.7 600.4-21 600.98-19.95 601.55-18.9 601.68-17.82 601.8-16.75 601.8-16L601.8-16 601.8 0 595.7 0 595.7-16.1Q595.7-18.1 593.3-18.1L593.3-18.1 586.3-18.1Q585.5-18.1 585.2-17.9 584.9-17.7 584.9-17L584.9-17 584.9 0 578.8 0 578.8-16.1Q578.8-18.1 576.4-18.1L576.4-18.1 569.5-18.1Q568.55-18.1 568.28-17.93 568-17.75 568-17L568-17 568 0ZM630.87 9.3L624.77 9.3 624.77-22.4 628.87-22.4 630.12-21.75Q632.37-22 635.49-22.2 638.62-22.4 642.62-22.4L642.62-22.4 645.17-22.4Q647.67-22.4 649.02-21.75 650.37-21.1 650.94-20.1 651.52-19.1 651.64-18 651.77-16.9 651.77-16L651.77-16 651.77-6.4Q651.77-5.65 651.64-4.58 651.52-3.5 650.94-2.45 650.37-1.4 649.02-0.7 647.67 0 645.17 0L645.17 0 642.62 0Q638.82 0 635.87-0.2 632.92-0.4 630.87-0.6L630.87-0.6 630.87 9.3ZM632.42-4.3L632.42-4.3 643.27-4.3Q644.22-4.3 644.94-4.8 645.67-5.3 645.67-6.3L645.67-6.3 645.67-16.1Q645.72-17.2 645.14-17.65 644.57-18.1 643.27-18.1L643.27-18.1 640.77-18.1Q637.57-18.1 635.09-17.98 632.62-17.85 630.87-17.7L630.87-17.7 630.87-5.85Q630.87-4.75 631.09-4.53 631.32-4.3 632.42-4.3ZM681.08 0L674.98 0 674.98-27.7 674.48-31.7 681.08-31.7 681.08 0ZM720.45 0L710.4 0Q707.9 0 706.55-0.65 705.2-1.3 704.62-2.3 704.05-3.3 703.92-4.4 703.8-5.5 703.8-6.4L703.8-6.4 703.8-16Q703.8-16.75 703.92-17.82 704.05-18.9 704.62-19.95 705.2-21 706.57-21.7 707.95-22.4 710.4-22.4L710.4-22.4 721.15-22.4Q724.45-22.4 726.32-21.78 728.2-21.15 728.97-19.75 729.75-18.35 729.75-16L729.75-16 729.75-8.6 721-8.6Q716.5-8.6 713.67-8.8 710.85-9 709.9-9.05L709.9-9.05 709.9-6.3Q709.85-4.3 712.3-4.3L712.3-4.3 714.85-4.3Q717.55-4.3 720.12-4.38 722.7-4.45 724.85-4.58 727-4.7 728.3-4.8L728.3-4.8 730.3-1.55Q730.3 0 720.45 0L720.45 0ZM709.9-16.1L709.9-12.9 723.65-12.9 723.65-16.1Q723.65-17.1 723.42-17.5 723.2-17.9 722.1-18 721-18.1 718.35-18.1L718.35-18.1 712.3-18.1Q709.9-18.1 709.9-16.1L709.9-16.1ZM800.53 0L786.38 0Q783.03 0 781.63-0.35 780.23-0.7 780.23-1.05L780.23-1.05 781.73-4.8Q783.18-4.65 787.05-4.48 790.93-4.3 796.63-4.3L796.63-4.3 799.13-4.3Q800.38-4.3 800.7-4.98 801.03-5.65 801.03-6.8L801.03-6.8Q801.03-7.95 800.65-8.65 800.28-9.35 799.13-9.35L799.13-9.35 786.83-9.35Q783.33-9.35 781.78-10.68 780.23-12 780.23-14.65L780.23-14.65 780.23-16.65Q780.23-17.35 780.38-18.3 780.53-19.25 781.13-20.2 781.73-21.15 783.08-21.78 784.43-22.4 786.83-22.4L786.83-22.4 800.63-22.4Q803.63-22.4 804.88-22.05 806.13-21.7 806.13-21.35L806.13-21.35 805.63-17.6Q804.18-17.75 800.28-17.93 796.38-18.1 790.73-18.1L790.73-18.1 788.23-18.1Q786.98-18.1 786.65-17.43 786.33-16.75 786.33-15.85L786.33-15.85Q786.33-14.9 786.65-14.28 786.98-13.65 788.23-13.65L788.23-13.65 800.53-13.65Q803.93-13.65 805.53-12.25 807.13-10.85 807.13-8.7L807.13-8.7 807.13-5.75Q807.13-4.85 807-3.85 806.88-2.85 806.28-1.98 805.68-1.1 804.33-0.55 802.98 0 800.53 0L800.53 0ZM833.39-25.55L833.39-25.55Q831.54-25.55 830.69-26.3 829.84-27.05 829.84-28.8L829.84-28.8Q829.84-30.6 830.67-31.33 831.49-32.05 833.39-32.05L833.39-32.05Q835.29-32.05 836.14-31.33 836.99-30.6 836.99-28.8L836.99-28.8Q836.99-27.1 836.14-26.33 835.29-25.55 833.39-25.55ZM836.44 0L830.34 0 830.34-22.4 836.44-22.4 836.44 0ZM866.31 0L860.21 0 860.21-22.4 864.31-22.4 866.31-21.4Q868.41-21.8 871.36-22.1 874.31-22.4 878.11-22.4L878.11-22.4 880.61-22.4Q883.11-22.4 884.46-21.7 885.81-21 886.38-19.95 886.96-18.9 887.08-17.82 887.21-16.75 887.21-16L887.21-16 887.21 0 881.11 0 881.11-16.1Q881.11-18.1 878.71-18.1L878.71-18.1 867.81-18.1Q866.86-18.1 866.58-17.93 866.31-17.75 866.31-17L866.31-17 866.31 0ZM926.32 0L916.27 0Q913.77 0 912.42-0.65 911.07-1.3 910.5-2.3 909.92-3.3 909.8-4.4 909.67-5.5 909.67-6.4L909.67-6.4 909.67-16Q909.67-16.75 909.8-17.82 909.92-18.9 910.5-19.95 911.07-21 912.45-21.7 913.82-22.4 916.27-22.4L916.27-22.4 923.22-22.4Q929.47-22.4 932.1-22.08 934.72-21.75 934.72-21.4L934.72-21.4 933.72-17.6Q932.32-17.7 930.17-17.82 928.02-17.95 925.55-18.03 923.07-18.1 920.72-18.1L920.72-18.1 918.17-18.1Q915.77-18.1 915.77-16.1L915.77-16.1 915.77-6.3Q915.72-4.3 918.17-4.3L918.17-4.3 920.72-4.3Q923.42-4.3 926-4.38 928.57-4.45 930.72-4.58 932.87-4.7 934.17-4.8L934.17-4.8 936.17-1.55Q936.17 0 926.32 0L926.32 0ZM973.04 0L962.99 0Q960.49 0 959.14-0.65 957.79-1.3 957.21-2.3 956.64-3.3 956.51-4.4 956.39-5.5 956.39-6.4L956.39-6.4 956.39-16Q956.39-16.75 956.51-17.82 956.64-18.9 957.21-19.95 957.79-21 959.16-21.7 960.54-22.4 962.99-22.4L962.99-22.4 973.74-22.4Q977.04-22.4 978.91-21.78 980.79-21.15 981.56-19.75 982.34-18.35 982.34-16L982.34-16 982.34-8.6 973.59-8.6Q969.09-8.6 966.26-8.8 963.44-9 962.49-9.05L962.49-9.05 962.49-6.3Q962.44-4.3 964.89-4.3L964.89-4.3 967.44-4.3Q970.14-4.3 972.71-4.38 975.29-4.45 977.44-4.58 979.59-4.7 980.89-4.8L980.89-4.8 982.89-1.55Q982.89 0 973.04 0L973.04 0ZM962.49-16.1L962.49-12.9 976.24-12.9 976.24-16.1Q976.24-17.1 976.01-17.5 975.79-17.9 974.69-18 973.59-18.1 970.94-18.1L970.94-18.1 964.89-18.1Q962.49-18.1 962.49-16.1L962.49-16.1ZM1044.27 0L1037.67 0 1037.67-24.6 1031.67-24.15 1031.32-28.4 1044.27-29.9 1044.27 0ZM1088.59 0L1077.24 0Q1072.99 0 1071.09-0.45 1069.19-0.9 1068.64-1.5L1068.64-1.5 1070.59-5.35Q1071.39-5.25 1073.24-5.1 1075.09-4.95 1078.46-4.88 1081.84-4.8 1087.19-4.8L1087.19-4.8Q1088.79-4.8 1089.61-5.35 1090.44-5.9 1090.76-6.73 1091.09-7.55 1091.09-8.35L1091.09-8.35 1091.09-11.6Q1090.64-11.55 1088.66-11.38 1086.69-11.2 1082.54-11.2L1082.54-11.2 1077.09-11.2Q1072.04-11.2 1070.01-13.33 1067.99-15.45 1067.99-19.8L1067.99-19.8 1067.99-20.5Q1067.99-22 1068.21-23.58 1068.44-25.15 1069.29-26.45 1070.14-27.75 1071.99-28.58 1073.84-29.4 1077.04-29.4L1077.04-29.4 1088.59-29.4Q1091.99-29.4 1093.84-28.45 1095.69-27.5 1096.51-26.05 1097.34-24.6 1097.51-23.1 1097.69-21.6 1097.69-20.5L1097.69-20.5 1097.69-8.95Q1097.69-7.95 1097.51-6.45 1097.34-4.95 1096.54-3.48 1095.74-2 1093.86-1 1091.99 0 1088.59 0L1088.59 0ZM1078.54-15.6L1078.54-15.6 1091.09-15.6 1091.09-21.1Q1091.09-22.5 1090.16-23.55 1089.24-24.6 1087.19-24.6L1087.19-24.6 1078.54-24.6Q1076.24-24.6 1075.41-23.45 1074.59-22.3 1074.59-21.1L1074.59-21.1 1074.59-19.2Q1074.59-17.5 1075.34-16.55 1076.09-15.6 1078.54-15.6ZM1142 0L1130.65 0Q1126.4 0 1124.5-0.45 1122.6-0.9 1122.05-1.5L1122.05-1.5 1124-5.35Q1124.8-5.25 1126.65-5.1 1128.5-4.95 1131.88-4.88 1135.25-4.8 1140.6-4.8L1140.6-4.8Q1142.2-4.8 1143.03-5.35 1143.85-5.9 1144.18-6.73 1144.5-7.55 1144.5-8.35L1144.5-8.35 1144.5-11.6Q1144.05-11.55 1142.08-11.38 1140.1-11.2 1135.95-11.2L1135.95-11.2 1130.5-11.2Q1125.45-11.2 1123.43-13.33 1121.4-15.45 1121.4-19.8L1121.4-19.8 1121.4-20.5Q1121.4-22 1121.63-23.58 1121.85-25.15 1122.7-26.45 1123.55-27.75 1125.4-28.58 1127.25-29.4 1130.45-29.4L1130.45-29.4 1142-29.4Q1145.4-29.4 1147.25-28.45 1149.1-27.5 1149.93-26.05 1150.75-24.6 1150.93-23.1 1151.1-21.6 1151.1-20.5L1151.1-20.5 1151.1-8.95Q1151.1-7.95 1150.93-6.45 1150.75-4.95 1149.95-3.48 1149.15-2 1147.28-1 1145.4 0 1142 0L1142 0ZM1131.95-15.6L1131.95-15.6 1144.5-15.6 1144.5-21.1Q1144.5-22.5 1143.58-23.55 1142.65-24.6 1140.6-24.6L1140.6-24.6 1131.95-24.6Q1129.65-24.6 1128.83-23.45 1128-22.3 1128-21.1L1128-21.1 1128-19.2Q1128-17.5 1128.75-16.55 1129.5-15.6 1131.95-15.6ZM1200.52 0L1193.92 0 1193.92-5.4 1174.32-5.4 1174.32-10.3 1191.27-29.4 1200.52-29.4 1200.52-10.2 1207.22-10.2 1207.22-5.4 1200.52-5.4 1200.52 0ZM1182.52-10.7L1182.47-10.2 1193.92-10.2 1193.92-23.3 1193.42-23.3 1182.52-10.7Z" opacity="1" transform="matrix(1,0,0,1,0,0)" fill="black" class="slogan-text-1" id="SvgjsPath1620"></path></svg></g></svg></g></svg></g></svg></g><g></g></svg></g><defs><mask></mask></defs></svg><rect width="356.12052" height="74.69399658591549" fill="black" stroke="none" visibility="hidden"></rect></g></mask><linearGradient x1="0" x2="1" y1="0.578" y2="0.595" id="b14b0fbe-3e3f-48f2-a680-ba40f3c60668"><stop stop-color="#6ee2f5" offset="0"></stop><stop stop-color="#6454f0" offset="1"></stop></linearGradient></svg><rect width="356.12052" height="74.69399658591549" fill="none" stroke="none" visibility="hidden"></rect></g></svg></g></svg>